<mxfile modified="2020-10-30T10:11:30.857Z" host="app.diagrams.net" agent="5.0 (Windows NT 10.0; Win64; x64) AppleWebKit/537.36 (KHTML, like Gecko) Chrome/86.0.4240.111 Safari/537.36" etag="Zr__5vbFcYc2nNif0Eqi" version="13.8.7" type="github">
  <diagram id="C2fSY1v2SiZeoUbDoYyL" name="Page-1">
    <mxGraphModel dx="1343" dy="700" grid="1" gridSize="10" guides="1" tooltips="1" connect="1" arrows="1" fold="1" page="1" pageScale="1" pageWidth="1169" pageHeight="827" math="0" shadow="0">
      <root>
        <mxCell id="0" />
        <mxCell id="1" parent="0" />
        <mxCell id="UOOkd_Sx9M1J2A1Di_9m-5" value="1s" style="rounded=1;whiteSpace=wrap;html=1;" vertex="1" parent="1">
          <mxGeometry x="103.5" y="320" width="120" height="60" as="geometry" />
        </mxCell>
        <mxCell id="UOOkd_Sx9M1J2A1Di_9m-6" value="Abfrage Gerät (hier HydroStar)" style="rounded=1;whiteSpace=wrap;html=1;fillColor=#fff2cc;strokeColor=#d6b656;" vertex="1" parent="1">
          <mxGeometry x="290" y="320" width="120" height="60" as="geometry" />
        </mxCell>
        <mxCell id="UOOkd_Sx9M1J2A1Di_9m-7" value="Abspeichern in Datei" style="rounded=1;whiteSpace=wrap;html=1;" vertex="1" parent="1">
          <mxGeometry x="480" y="320" width="120" height="60" as="geometry" />
        </mxCell>
        <mxCell id="UOOkd_Sx9M1J2A1Di_9m-8" value="Änderung in Datei?" style="rounded=1;whiteSpace=wrap;html=1;" vertex="1" parent="1">
          <mxGeometry x="103.5" y="440" width="120" height="60" as="geometry" />
        </mxCell>
        <mxCell id="UOOkd_Sx9M1J2A1Di_9m-9" value="Lesen der Änderungsdatei" style="rounded=1;whiteSpace=wrap;html=1;" vertex="1" parent="1">
          <mxGeometry x="290" y="440" width="120" height="60" as="geometry" />
        </mxCell>
        <mxCell id="UOOkd_Sx9M1J2A1Di_9m-10" value="Änderung an Gerät senden (&lt;span style=&quot;background-color: rgb(255 , 255 , 255)&quot;&gt;hier &lt;/span&gt;HydroStar)" style="rounded=1;whiteSpace=wrap;html=1;strokeColor=#d6b656;fillColor=#FFF2CC;" vertex="1" parent="1">
          <mxGeometry x="480" y="440" width="120" height="60" as="geometry" />
        </mxCell>
        <mxCell id="UOOkd_Sx9M1J2A1Di_9m-14" value="" style="endArrow=classic;html=1;entryX=0;entryY=0.5;entryDx=0;entryDy=0;exitX=1;exitY=0.5;exitDx=0;exitDy=0;" edge="1" parent="1" source="UOOkd_Sx9M1J2A1Di_9m-5" target="UOOkd_Sx9M1J2A1Di_9m-6">
          <mxGeometry width="50" height="50" relative="1" as="geometry">
            <mxPoint x="223.5" y="360" as="sourcePoint" />
            <mxPoint x="273.5" y="310" as="targetPoint" />
          </mxGeometry>
        </mxCell>
        <mxCell id="UOOkd_Sx9M1J2A1Di_9m-15" value="" style="endArrow=classic;html=1;entryX=0;entryY=0.5;entryDx=0;entryDy=0;exitX=1;exitY=0.5;exitDx=0;exitDy=0;" edge="1" parent="1">
          <mxGeometry width="50" height="50" relative="1" as="geometry">
            <mxPoint x="410" y="349.5" as="sourcePoint" />
            <mxPoint x="476.5" y="349.5" as="targetPoint" />
          </mxGeometry>
        </mxCell>
        <mxCell id="UOOkd_Sx9M1J2A1Di_9m-16" value="" style="endArrow=classic;html=1;entryX=0;entryY=0.5;entryDx=0;entryDy=0;exitX=1;exitY=0.5;exitDx=0;exitDy=0;" edge="1" parent="1">
          <mxGeometry width="50" height="50" relative="1" as="geometry">
            <mxPoint x="223.5" y="469.5" as="sourcePoint" />
            <mxPoint x="290" y="469.5" as="targetPoint" />
          </mxGeometry>
        </mxCell>
        <mxCell id="UOOkd_Sx9M1J2A1Di_9m-17" value="" style="endArrow=classic;html=1;entryX=0;entryY=0.5;entryDx=0;entryDy=0;exitX=1;exitY=0.5;exitDx=0;exitDy=0;" edge="1" parent="1">
          <mxGeometry width="50" height="50" relative="1" as="geometry">
            <mxPoint x="410" y="469.5" as="sourcePoint" />
            <mxPoint x="476.5" y="469.5" as="targetPoint" />
          </mxGeometry>
        </mxCell>
        <mxCell id="UOOkd_Sx9M1J2A1Di_9m-18" value="Abfrage des Gerätes und erzeugen eines json-Strings mit Informationen, die für die Anzeige in der App benötigt werden. Beispiel HydroStar: Aus bga_power_bit wird bga_prozent, bga_m/s, bga_km/h, usw&lt;br&gt;" style="ellipse;whiteSpace=wrap;html=1;fillColor=#ffe6cc;strokeColor=#d79b00;" vertex="1" parent="1">
          <mxGeometry x="210" y="100" width="270" height="180" as="geometry" />
        </mxCell>
        <mxCell id="UOOkd_Sx9M1J2A1Di_9m-19" value="Informationen aus der Datei müssen in für das Gerät verständliche Werte umgerechnet werden. Beispiel HydroStar: bga_prozent wird in bga_power_bit umgerechnet und der gesamte String [1,0,...] wird erzeugt. Dazu müssen noch weiter Statusdateien eingelesen werden. Hier HydroStar und Licht." style="ellipse;whiteSpace=wrap;html=1;fillColor=#ffe6cc;strokeColor=#d79b00;" vertex="1" parent="1">
          <mxGeometry x="390" y="530" width="330" height="230" as="geometry" />
        </mxCell>
      </root>
    </mxGraphModel>
  </diagram>
</mxfile>
